<svg viewBox="0 0 27 27" fill="none" xmlns="http://www.w3.org/2000/svg">
    <path fill-rule="evenodd" clip-rule="evenodd" d="M4.24052 1.94595L5.46795 1.70047C6.3208 1.5299 7.18612 1.93005 7.6085 2.69034L9.7024 6.45936C10.1361 7.23995 9.99972 8.21344 9.3683 8.84486L7.95861 10.2545C7.3098 10.9041 7.1866 11.9121 7.66042 12.6985C8.45558 14.0205 9.3812 15.2096 10.4373 16.2656C11.4934 17.3217 12.6816 18.2465 14.002 19.04C14.7885 19.5117 15.795 19.388 16.4439 18.7398L17.8536 17.3301C18.485 16.6987 19.4585 16.5624 20.2391 16.996L24.0081 19.0899C24.7684 19.5123 25.1685 20.3776 24.998 21.2305L24.7525 22.4579C24.6351 23.0441 24.2618 23.5471 23.7337 23.8274C18.7799 26.468 13.4042 24.8894 7.60661 19.0918C1.80901 13.2942 0.230472 7.91852 2.87101 2.96472C3.15133 2.43668 3.65432 2.06329 4.24052 1.94595Z" stroke="#464646" stroke-width="2" stroke-linecap="round" stroke-linejoin="round"/>
</svg>
