<svg viewBox="0 0 25 25" fill="none" xmlns="http://www.w3.org/2000/svg">
    <path d="M15.7606 19.8542H7.42725C7.00016 19.8542 6.646 19.5 6.646 19.0729C6.646 18.6458 7.00016 18.2917 7.42725 18.2917H15.7606C18.1981 18.2917 20.1877 16.3021 20.1877 13.8646C20.1877 11.4271 18.1981 9.4375 15.7606 9.4375H4.30225C3.87516 9.4375 3.521 9.08333 3.521 8.65625C3.521 8.22917 3.87516 7.875 4.30225 7.875H15.7606C19.0627 7.875 21.7502 10.5625 21.7502 13.8646C21.7502 17.1667 19.0627 19.8542 15.7606 19.8542Z" fill="currentColor"/>
    <path d="M6.69775 12.0417C6.49984 12.0417 6.30192 11.9688 6.14567 11.8125L3.479 9.14583C3.17692 8.84375 3.17692 8.34375 3.479 8.04167L6.14567 5.375C6.44775 5.07292 6.94775 5.07292 7.24984 5.375C7.55192 5.67708 7.55192 6.17708 7.24984 6.47917L5.13525 8.59375L7.24984 10.7083C7.55192 11.0104 7.55192 11.5104 7.24984 11.8125C7.104 11.9688 6.89567 12.0417 6.69775 12.0417Z" fill="currentColor"/>
</svg>
