<svg fill="none" xmlns="http://www.w3.org/2000/svg">
    <symbol id="icon-code" viewBox="0 0 32 32" fill="currentColor">
        <path fill-rule="evenodd" clip-rule="evenodd" d="M8.57617 10.5199C8.84134 10.8381 8.79835 11.311 8.48014 11.5762L3.17154 16L8.48014 20.4239C8.79835 20.689 8.84134 21.162 8.57617 21.4802C8.31099 21.7984 7.83807 21.8414 7.51986 21.5762L1.51986 16.5762C1.34887 16.4337 1.25 16.2226 1.25 16C1.25 15.7774 1.34887 15.5663 1.51986 15.4239L7.51986 10.4239C7.83807 10.1587 8.31099 10.2017 8.57617 10.5199Z" fill="currentColor"/>
        <path fill-rule="evenodd" clip-rule="evenodd" d="M23.4239 10.5199C23.689 10.2017 24.1619 10.1587 24.4802 10.4239L30.4802 15.4239C30.6512 15.5663 30.75 15.7774 30.75 16C30.75 16.2226 30.6512 16.4337 30.4802 16.5762L24.4802 21.5762C24.1619 21.8414 23.689 21.7984 23.4239 21.4802C23.1587 21.162 23.2017 20.689 23.5199 20.4239L28.8285 16L23.5199 11.5762C23.2017 11.311 23.1587 10.8381 23.4239 10.5199Z" fill="currentColor"/>
        <path fill-rule="evenodd" clip-rule="evenodd" d="M20.2563 4.29516C20.6455 4.43672 20.8464 4.86704 20.7048 5.25631L12.7048 27.2563C12.5633 27.6456 12.1329 27.8464 11.7437 27.7049C11.3544 27.5633 11.1536 27.133 11.2951 26.7437L19.2951 4.7437C19.4367 4.35442 19.867 4.15361 20.2563 4.29516Z" fill="currentColor"/>
    </symbol>
    <symbol id="icon-location" viewBox="0 0 32 32" fill="currentColor">
        <path fill-rule="evenodd" clip-rule="evenodd" d="M16 3C21.3848 3 26 7.61522 26 13C26 18.3848 16 29 16 29C16 29 6 18.3848 6 13C6 7.61522 10.6152 3 16 3Z" stroke="currentColor" stroke-width="2" stroke-linecap="round" stroke-linejoin="round"/>
        <rect x="11" y="8" width="10" height="10" rx="5" stroke="currentColor" stroke-width="2" stroke-linecap="round" stroke-linejoin="round"/>
    </symbol>
    <symbol id="icon-mail" viewBox="0 0 32 32" fill="currentColor">
        <rect x="4" y="7" width="24" height="18" rx="2" stroke="currentColor" stroke-width="2" stroke-linecap="round" stroke-linejoin="round"/>
        <path d="M8 11L16 17L24 11" stroke="currentColor" stroke-width="2" stroke-linecap="round" stroke-linejoin="round"/>
    </symbol>
    <symbol id="icon-phone" viewBox="0 0 27 27" fill="currentColor">
        <path fill-rule="evenodd" clip-rule="evenodd" d="M4.24052 1.94595L5.46795 1.70047C6.3208 1.5299 7.18612 1.93005 7.6085 2.69034L9.7024 6.45936C10.1361 7.23995 9.99972 8.21344 9.3683 8.84486L7.95861 10.2545C7.3098 10.9041 7.1866 11.9121 7.66042 12.6985C8.45558 14.0205 9.3812 15.2096 10.4373 16.2656C11.4934 17.3217 12.6816 18.2465 14.002 19.04C14.7885 19.5117 15.795 19.388 16.4439 18.7398L17.8536 17.3301C18.485 16.6987 19.4585 16.5624 20.2391 16.996L24.0081 19.0899C24.7684 19.5123 25.1685 20.3776 24.998 21.2305L24.7525 22.4579C24.6351 23.0441 24.2618 23.5471 23.7337 23.8274C18.7799 26.468 13.4042 24.8894 7.60661 19.0918C1.80901 13.2942 0.230472 7.91852 2.87101 2.96472C3.15133 2.43668 3.65432 2.06329 4.24052 1.94595Z" stroke="currentColor" stroke-width="2" stroke-linecap="round" stroke-linejoin="round"/>
    </symbol>
    <symbol id="icon-world" viewBox="0 0 32 33" fill="currentColor">
        <circle cx="16" cy="16.8823" r="12" stroke="currentColor" stroke-width="2" stroke-linecap="round" stroke-linejoin="round"/>
        <ellipse cx="16" cy="16.8823" rx="6" ry="12" stroke="currentColor" stroke-width="2" stroke-linecap="round" stroke-linejoin="round"/>
        <path d="M27 21.8824L5 21.8824" stroke="currentColor" stroke-width="2" stroke-linejoin="round"/>
        <path d="M27 11.8823L5 11.8823" stroke="currentColor" stroke-width="2" stroke-linejoin="round"/>
    </symbol>
    <symbol id="icon-undo" viewBox="0 0 25 25" fill="currentColor">
        <path d="M15.7606 19.8542H7.42725C7.00016 19.8542 6.646 19.5 6.646 19.0729C6.646 18.6458 7.00016 18.2917 7.42725 18.2917H15.7606C18.1981 18.2917 20.1877 16.3021 20.1877 13.8646C20.1877 11.4271 18.1981 9.4375 15.7606 9.4375H4.30225C3.87516 9.4375 3.521 9.08333 3.521 8.65625C3.521 8.22917 3.87516 7.875 4.30225 7.875H15.7606C19.0627 7.875 21.7502 10.5625 21.7502 13.8646C21.7502 17.1667 19.0627 19.8542 15.7606 19.8542Z" fill="currentColor"/>
        <path d="M6.69775 12.0417C6.49984 12.0417 6.30192 11.9688 6.14567 11.8125L3.479 9.14583C3.17692 8.84375 3.17692 8.34375 3.479 8.04167L6.14567 5.375C6.44775 5.07292 6.94775 5.07292 7.24984 5.375C7.55192 5.67708 7.55192 6.17708 7.24984 6.47917L5.13525 8.59375L7.24984 10.7083C7.55192 11.0104 7.55192 11.5104 7.24984 11.8125C7.104 11.9688 6.89567 12.0417 6.69775 12.0417Z" fill="currentColor"/>
    </symbol>
    <symbol id="icon-redo" viewBox="0 0 25 25" fill="currentColor">
        <path d="M17.5729 19.8542H9.23958C5.9375 19.8542 3.25 17.1667 3.25 13.8646C3.25 10.5625 5.9375 7.875 9.23958 7.875H20.6979C21.125 7.875 21.4792 8.22917 21.4792 8.65625C21.4792 9.08333 21.125 9.4375 20.6979 9.4375H9.23958C6.80208 9.4375 4.8125 11.4271 4.8125 13.8646C4.8125 16.3021 6.80208 18.2917 9.23958 18.2917H17.5729C18 18.2917 18.3542 18.6458 18.3542 19.0729C18.3542 19.5 18.0104 19.8542 17.5729 19.8542Z" fill="currentColor"/>
        <path d="M18.3021 12.0417C18.1042 12.0417 17.9062 11.9688 17.75 11.8125C17.4479 11.5104 17.4479 11.0104 17.75 10.7083L19.8646 8.59375L17.75 6.47917C17.4479 6.17708 17.4479 5.67708 17.75 5.375C18.0521 5.07292 18.5521 5.07292 18.8542 5.375L21.5208 8.04167C21.8229 8.34375 21.8229 8.84375 21.5208 9.14583L18.8542 11.8125C18.6979 11.9688 18.5 12.0417 18.3021 12.0417Z" fill="currentColor"/>
    </symbol>
    <symbol id="icon-candle" viewBox="0 0 24 24" fill="currentColor">
        <path d="M6.5 22.75C6.09 22.75 5.75 22.41 5.75 22V15C5.75 14.59 6.09 14.25 6.5 14.25C6.91 14.25 7.25 14.59 7.25 15V22C7.25 22.41 6.91 22.75 6.5 22.75Z" fill="currentColor"/>
        <path d="M6.5 5.75C6.09 5.75 5.75 5.41 5.75 5V2C5.75 1.59 6.09 1.25 6.5 1.25C6.91 1.25 7.25 1.59 7.25 2V5C7.25 5.41 6.91 5.75 6.5 5.75Z" fill="currentColor"/>
        <path d="M17.5 22.75C17.09 22.75 16.75 22.41 16.75 22V19C16.75 18.59 17.09 18.25 17.5 18.25C17.91 18.25 18.25 18.59 18.25 19V22C18.25 22.41 17.91 22.75 17.5 22.75Z" fill="currentColor"/>
        <path d="M17.5 9.75C17.09 9.75 16.75 9.41 16.75 9V2C16.75 1.59 17.09 1.25 17.5 1.25C17.91 1.25 18.25 1.59 18.25 2V9C18.25 9.41 17.91 9.75 17.5 9.75Z" fill="currentColor"/>
        <path d="M7.5 15.75H5.5C3.78 15.75 2.75 14.72 2.75 13V7C2.75 5.28 3.78 4.25 5.5 4.25H7.5C9.22 4.25 10.25 5.28 10.25 7V13C10.25 14.72 9.22 15.75 7.5 15.75ZM5.5 5.75C4.61 5.75 4.25 6.11 4.25 7V13C4.25 13.89 4.61 14.25 5.5 14.25H7.5C8.39 14.25 8.75 13.89 8.75 13V7C8.75 6.11 8.39 5.75 7.5 5.75H5.5Z" fill="currentColor"/>
        <path d="M18.5 19.75H16.5C14.78 19.75 13.75 18.72 13.75 17V11C13.75 9.28 14.78 8.25 16.5 8.25H18.5C20.22 8.25 21.25 9.28 21.25 11V17C21.25 18.72 20.22 19.75 18.5 19.75ZM16.5 9.75C15.61 9.75 15.25 10.11 15.25 11V17C15.25 17.89 15.61 18.25 16.5 18.25H18.5C19.39 18.25 19.75 17.89 19.75 17V11C19.75 10.11 19.39 9.75 18.5 9.75H16.5Z" fill="black"/>
    </symbol>
    <symbol id="icon-text-bolder" viewBox="0 0 25 25" fill="none">
        <path fill-rule="evenodd" clip-rule="evenodd" d="M5.7192 4.15666C5.85986 4.01601 6.05064 3.937 6.24956 3.93701L13.672 3.93749C13.672 3.93749 13.6719 3.93749 13.672 3.93749C14.8033 3.9375 15.8883 4.38691 16.6882 5.18686C17.4882 5.98682 17.9376 7.0718 17.9376 8.20311C17.9376 9.33443 17.4882 10.4194 16.6882 11.2194C16.6574 11.2502 16.6261 11.2805 16.5944 11.3103C17.1661 11.5423 17.6916 11.8878 18.1363 12.3325C19.0095 13.2057 19.5001 14.3901 19.5001 15.625C19.5001 16.8599 19.0095 18.0442 18.1363 18.9175C17.2631 19.7907 16.0787 20.2812 14.8438 20.2812L6.24947 20.2808C5.83527 20.2807 5.49951 19.945 5.49951 19.5308V4.68701C5.49951 4.48809 5.57854 4.29732 5.7192 4.15666ZM13.672 10.9687C14.4054 10.9687 15.1089 10.6774 15.6276 10.1587C16.1462 9.64005 16.4376 8.9366 16.4376 8.20311C16.4376 7.46962 16.1462 6.76618 15.6276 6.24752C15.1089 5.72887 14.4054 5.43749 13.672 5.43749L6.99951 5.43706V10.9687H13.672ZM6.99951 12.4687V18.7808L14.8438 18.7812C14.8438 18.7812 14.8438 18.7812 14.8438 18.7812C15.6809 18.7812 16.4837 18.4487 17.0756 17.8568C17.6676 17.2649 18.0001 16.4621 18.0001 15.625C18.0001 14.7879 17.6676 13.9851 17.0756 13.3932C16.4837 12.8013 15.6809 12.4687 14.8438 12.4687H6.99951Z" fill="currentColor"/>
    </symbol>

    <symbol id="icon-text-italic" viewBox="0 0 25 25" fill="currentColor">
        <path d="M14.8433 5.46826L10.1558 19.5308" stroke="currentColor" stroke-width="1.5" stroke-linecap="round" stroke-linejoin="round"/>
        <path d="M6.24951 19.5308H14.062" stroke="currentColor" stroke-width="1.5" stroke-linecap="round" stroke-linejoin="round"/>
        <path d="M10.937 5.46826H18.7495" stroke="currentColor" stroke-width="1.5" stroke-linecap="round" stroke-linejoin="round"/>
    </symbol>
    <symbol id="icon-text-underline" viewBox="0 0 25 25" fill="currentColor">
        <path fill-rule="evenodd" clip-rule="evenodd" d="M3.15625 21.0938C3.15625 20.6795 3.49204 20.3438 3.90625 20.3438H21.0938C21.508 20.3438 21.8438 20.6795 21.8438 21.0938C21.8438 21.508 21.508 21.8438 21.0938 21.8438H3.90625C3.49204 21.8438 3.15625 21.508 3.15625 21.0938Z" fill="currentColor"/>
        <path fill-rule="evenodd" clip-rule="evenodd" d="M6.25 4.71875C6.66421 4.71875 7 5.05454 7 5.46875V11.7188C7 13.1774 7.57946 14.5764 8.61091 15.6078C9.64236 16.6393 11.0413 17.2188 12.5 17.2188C13.9587 17.2188 15.3576 16.6393 16.3891 15.6078C17.4205 14.5764 18 13.1774 18 11.7188V5.46875C18 5.05454 18.3358 4.71875 18.75 4.71875C19.1642 4.71875 19.5 5.05454 19.5 5.46875V11.7188C19.5 13.5753 18.7625 15.3557 17.4497 16.6685C16.137 17.9813 14.3565 18.7188 12.5 18.7188C10.6435 18.7188 8.86301 17.9813 7.55025 16.6685C6.2375 15.3557 5.5 13.5753 5.5 11.7188V5.46875C5.5 5.05454 5.83579 4.71875 6.25 4.71875Z" fill="currentColor"/>
    </symbol>
    <symbol id="icon-text-strikethrough" viewBox="0 0 25 25" fill="currentColor">
        <path fill-rule="evenodd" clip-rule="evenodd" d="M3.15625 12.5C3.15625 12.0858 3.49204 11.75 3.90625 11.75H21.0938C21.508 11.75 21.8438 12.0858 21.8438 12.5C21.8438 12.9142 21.508 13.25 21.0938 13.25H3.90625C3.49204 13.25 3.15625 12.9142 3.15625 12.5Z" fill="black"/>
        <path fill-rule="evenodd" clip-rule="evenodd" d="M12.5 5.4375C9.70348 5.4375 8.08504 7.01824 8.08504 8.59375V8.59967H8.08502C8.08355 8.78495 8.11172 8.96927 8.16845 9.14566C8.29526 9.53999 8.07841 9.96245 7.68409 10.0893C7.28976 10.2161 6.8673 9.99923 6.74048 9.60491C6.63511 9.27729 6.58264 8.93497 6.58504 8.59084C6.58693 5.85318 9.25699 3.9375 12.5 3.9375C15.0209 3.9375 17.1409 5.06427 18.0111 6.85135C18.1924 7.22375 18.0375 7.67266 17.6651 7.854C17.2927 8.03535 16.8438 7.88046 16.6625 7.50806C16.1124 6.37832 14.6233 5.4375 12.5 5.4375Z" fill="black"/>
        <path fill-rule="evenodd" clip-rule="evenodd" d="M12.7962 12.2887C12.9128 11.8912 13.3295 11.6635 13.7269 11.78C14.9019 12.1246 16.1278 12.55 17.0633 13.2348C18.0407 13.9503 18.7188 14.965 18.7188 16.406C18.7188 17.7898 17.9322 18.9718 16.8029 19.7785C15.6722 20.5862 14.1484 21.0623 12.5 21.0623C10.8516 21.0623 9.32785 20.5862 8.19708 19.7785C7.06775 18.9718 6.28125 17.7898 6.28125 16.406C6.28125 15.9918 6.61704 15.656 7.03125 15.656C7.44546 15.656 7.78125 15.9918 7.78125 16.406C7.78125 17.1796 8.21897 17.9507 9.06894 18.5579C9.91747 19.164 11.1281 19.5623 12.5 19.5623C13.8719 19.5623 15.0825 19.164 15.9311 18.5579C16.781 17.9507 17.2188 17.1796 17.2188 16.406C17.2188 15.5262 16.841 14.931 16.1773 14.4452C15.4717 13.9287 14.4711 13.5614 13.3049 13.2194C12.9074 13.1028 12.6796 12.6861 12.7962 12.2887Z" fill="black"/>
    </symbol>
    <symbol id="icon-list-numbers" viewBox="0 0 25 25" fill="currentColor">
        <path d="M10.1562 12.5H21.0937" stroke="currentColor" stroke-width="1.5" stroke-linecap="round" stroke-linejoin="round"/>
        <path d="M10.1562 6.25H21.0937" stroke="currentColor" stroke-width="1.5" stroke-linecap="round" stroke-linejoin="round"/>
        <path d="M10.1562 18.75H21.0938" stroke="currentColor" stroke-width="1.5" stroke-linecap="round" stroke-linejoin="round"/>
        <path d="M3.90625 5.85938L5.46875 5.07812V10.5463" stroke="currentColor" stroke-width="1.5" stroke-linecap="round" stroke-linejoin="round"/>
        <path d="M4.01369 14.8976C4.08793 14.7219 4.19808 14.5637 4.33707 14.4332C4.47607 14.3026 4.64083 14.2026 4.82078 14.1395C5.00073 14.0764 5.19189 14.0517 5.38198 14.0668C5.57206 14.082 5.75688 14.1368 5.92455 14.2276C6.09221 14.3184 6.23903 14.4433 6.35557 14.5942C6.47211 14.7452 6.55578 14.9188 6.60123 15.104C6.64668 15.2892 6.65288 15.4819 6.61946 15.6696C6.58603 15.8573 6.51371 16.036 6.40713 16.1941L3.90625 19.5313H6.64062" stroke="currentColor" stroke-width="1.5" stroke-linecap="round" stroke-linejoin="round"/>
    </symbol>
    <symbol id="icon-list-bullets" viewBox="0 0 25 25" fill="currentColor">
        <path d="M8.59375 6.25H21.0938" stroke="currentColor" stroke-width="1.5" stroke-linecap="round" stroke-linejoin="round"/>
        <path d="M8.59424 12.5H21.0936" stroke="currentColor" stroke-width="1.5" stroke-linecap="round" stroke-linejoin="round"/>
        <path d="M8.59424 18.75H21.0936" stroke="currentColor" stroke-width="1.5" stroke-linecap="round" stroke-linejoin="round"/>
        <path d="M4.29688 7.22656C4.83622 7.22656 5.27344 6.78934 5.27344 6.25C5.27344 5.71066 4.83622 5.27344 4.29688 5.27344C3.75753 5.27344 3.32031 5.71066 3.32031 6.25C3.32031 6.78934 3.75753 7.22656 4.29688 7.22656Z" fill="currentColor"/>
        <path d="M4.29688 19.7266C4.83622 19.7266 5.27344 19.2893 5.27344 18.75C5.27344 18.2107 4.83622 17.7734 4.29688 17.7734C3.75753 17.7734 3.32031 18.2107 3.32031 18.75C3.32031 19.2893 3.75753 19.7266 4.29688 19.7266Z" fill="currentColor"/>
        <path d="M4.29688 13.4766C4.83622 13.4766 5.27344 13.0393 5.27344 12.5C5.27344 11.9607 4.83622 11.5234 4.29688 11.5234C3.75753 11.5234 3.32031 11.9607 3.32031 12.5C3.32031 13.0393 3.75753 13.4766 4.29688 13.4766Z" fill="currentColor"/>
    </symbol>
    <symbol id="icon-clip" viewBox="0 0 24 24" fill="currentColor">
        <path d="M14.9995 7.49951L7.18934 15.4393C6.90804 15.7206 6.75 16.1021 6.75 16.5C6.75 16.8978 6.90804 17.2793 7.18934 17.5606C7.47064 17.8419 7.85218 18 8.25 18C8.64783 18 9.02936 17.8419 9.31066 17.5606L18.6208 8.12083C18.8993 7.84226 19.1203 7.51154 19.2711 7.14756C19.4219 6.78359 19.4995 6.39348 19.4995 5.99951C19.4995 5.60555 19.4219 5.21544 19.2711 4.85146C19.1203 4.48748 18.8993 4.15677 18.6208 3.87819C18.3422 3.59962 18.0115 3.37864 17.6475 3.22787C17.2835 3.07711 16.8934 2.99951 16.4995 2.99951C16.1055 2.99951 15.7154 3.07711 15.3514 3.22787C14.9874 3.37864 14.6567 3.59962 14.3781 3.87819L5.06802 13.318C4.22411 14.1619 3.75 15.3065 3.75 16.5C3.75 17.6934 4.22411 18.838 5.06802 19.682C5.91193 20.5259 7.05653 21 8.25 21C9.44348 21 10.5881 20.5259 11.432 19.682L19.1245 11.9995" stroke="currentColor" stroke-width="1.5" stroke-linecap="round" stroke-linejoin="round"/>
    </symbol>
    <symbol id="icon-archive-tick" viewBox="0 0 25 25" fill="currentColor">
        <path d="M17.521 2.0835H7.47933C5.26058 2.0835 3.4585 3.896 3.4585 6.10433V20.7814C3.4585 22.6564 4.80225 23.4481 6.44808 22.5418L11.5314 19.7189C12.0731 19.4168 12.9481 19.4168 13.4793 19.7189L18.5627 22.5418C20.2085 23.4585 21.5522 22.6668 21.5522 20.7814V6.10433C21.5418 3.896 19.7397 2.0835 17.521 2.0835Z" stroke="currentColor" stroke-width="1.5" stroke-linecap="round" stroke-linejoin="round"/>
        <path d="M9.98975 11.4582L11.5522 13.0207L15.7189 8.854" stroke="currentColor" stroke-width="1.5" stroke-linecap="round" stroke-linejoin="round"/>
    </symbol>
    <symbol id="icon-down-left-arrow" viewBox="0 0 32 32" fill="currentColor">
        <path fill-rule="evenodd" clip-rule="evenodd" d="M10.5303 14.4697C10.8232 14.7626 10.8232 15.2374 10.5303 15.5303L5.06066 21L10.5303 26.4697C10.8232 26.7626 10.8232 27.2374 10.5303 27.5303C10.2374 27.8232 9.76256 27.8232 9.46967 27.5303L3.46967 21.5303C3.17678 21.2374 3.17678 20.7626 3.46967 20.4697L9.46967 14.4697C9.76256 14.1768 10.2374 14.1768 10.5303 14.4697Z" fill="currentColor"/>
        <path fill-rule="evenodd" clip-rule="evenodd" d="M9.25 7C9.25 6.58579 9.58579 6.25 10 6.25H21C23.0554 6.25 25.0267 7.06652 26.4801 8.51992C27.9335 9.97333 28.75 11.9446 28.75 14C28.75 15.0178 28.5495 16.0255 28.1601 16.9658C27.7706 17.9061 27.1997 18.7604 26.4801 19.4801C25.7604 20.1997 24.9061 20.7706 23.9658 21.1601C23.0255 21.5495 22.0178 21.75 21 21.75H4C3.58579 21.75 3.25 21.4142 3.25 21C3.25 20.5858 3.58579 20.25 4 20.25H21C21.8208 20.25 22.6335 20.0883 23.3918 19.7742C24.1501 19.4602 24.8391 18.9998 25.4194 18.4194C25.9998 17.8391 26.4602 17.1501 26.7742 16.3918C27.0883 15.6335 27.25 14.8208 27.25 14C27.25 12.3424 26.5915 10.7527 25.4194 9.58058C24.2473 8.40848 22.6576 7.75 21 7.75H10C9.58579 7.75 9.25 7.41421 9.25 7Z" fill="currentColor"/>
    </symbol>
    <symbol id="icon-save" viewBox="0 0 32 32" fill="currentColor">
        <path fill-rule="evenodd" clip-rule="evenodd" d="M6 5.75C5.9337 5.75 5.87011 5.77634 5.82322 5.82322C5.77634 5.87011 5.75 5.9337 5.75 6V26C5.75 26.0663 5.77634 26.1299 5.82322 26.1768C5.87011 26.2237 5.93369 26.25 6 26.25H26C26.0663 26.25 26.1299 26.2237 26.1768 26.1768C26.2237 26.1299 26.25 26.0663 26.25 26V11.4142C26.25 11.3814 26.2435 11.3489 26.231 11.3185C26.2184 11.2882 26.2 11.2607 26.1768 11.2374L20.7626 5.82322L21.2929 5.29289L20.7626 5.82322C20.7394 5.80001 20.7118 5.78159 20.6815 5.76903C20.6511 5.75647 20.6186 5.75 20.5858 5.75H6ZM4.76256 4.76256C5.09075 4.43438 5.53587 4.25 6 4.25H20.5858C20.8156 4.25 21.0432 4.29526 21.2555 4.38321C21.4678 4.47116 21.6607 4.60006 21.8232 4.76256L27.2374 10.1768C27.3999 10.3393 27.5288 10.5322 27.6168 10.7445C27.7047 10.9568 27.75 11.1844 27.75 11.4142V26C27.75 26.4641 27.5656 26.9092 27.2374 27.2374C26.9092 27.5656 26.4641 27.75 26 27.75H6C5.53587 27.75 5.09075 27.5656 4.76256 27.2374C4.43437 26.9092 4.25 26.4641 4.25 26V6C4.25 5.53587 4.43438 5.09075 4.76256 4.76256Z" fill="currentColor"/>
        <path fill-rule="evenodd" clip-rule="evenodd" d="M16.001 16.7511C14.4822 16.7511 13.251 17.9823 13.251 19.5011C13.251 21.0199 14.4822 22.2511 16.001 22.2511C17.5198 22.2511 18.751 21.0199 18.751 19.5011C18.751 17.9823 17.5198 16.7511 16.001 16.7511ZM11.751 19.5011C11.751 17.1539 13.6538 15.2511 16.001 15.2511C18.3482 15.2511 20.251 17.1539 20.251 19.5011C20.251 21.8483 18.3482 23.7511 16.001 23.7511C13.6538 23.7511 11.751 21.8483 11.751 19.5011Z" fill="currentColor"/>
        <path fill-rule="evenodd" clip-rule="evenodd" d="M12 4.2511C12.4142 4.2511 12.75 4.58689 12.75 5.0011V11.2511H20C20.4142 11.2511 20.75 11.5869 20.75 12.0011C20.75 12.4153 20.4142 12.7511 20 12.7511H12C11.5858 12.7511 11.25 12.4153 11.25 12.0011V5.0011C11.25 4.58689 11.5858 4.2511 12 4.2511Z" fill="currentColor"/>
    </symbol>
    <symbol id="icon-swatches" viewBox="0 0 32 32" fill="currentColor">
        <path fill-rule="evenodd" clip-rule="evenodd" d="M8.63533 4.41189C8.57003 4.40038 8.50283 4.41528 8.44852 4.45331C8.39421 4.49134 8.35723 4.54939 8.34571 4.61468L5.3223 21.7613C4.95376 23.8514 6.36154 25.8824 8.42113 26.2051C9.39116 26.3566 10.3819 26.1217 11.1807 25.5507C11.9794 24.9797 12.5224 24.1182 12.6929 23.1512L15.7318 5.91705C15.7433 5.85175 15.7284 5.78455 15.6904 5.73024C15.6523 5.67593 15.5943 5.63895 15.529 5.62743L8.63533 4.41189ZM8.8958 2.93468L8.76556 3.67329L8.8958 2.93468L15.7895 4.15022C16.2465 4.23082 16.6529 4.48968 16.9191 4.86988C17.1853 5.25007 17.2896 5.72044 17.209 6.17752L14.1701 23.4117C13.9314 24.7654 13.1713 25.9716 12.053 26.771C10.9347 27.5704 9.54741 27.8993 8.18924 27.687L8.18896 27.687C5.26287 27.2286 3.33732 24.3805 3.84509 21.5008L6.8685 4.35421C6.9491 3.89714 7.20796 3.49079 7.58815 3.22458C7.96835 2.95837 8.43872 2.85409 8.8958 2.93468Z" fill="currentColor"/>
        <path fill-rule="evenodd" clip-rule="evenodd" d="M24.3531 12.9991C24.293 12.9711 24.2243 12.9681 24.162 12.9908L15.0416 16.3103C14.6523 16.452 14.222 16.2513 14.0803 15.8621C13.9386 15.4729 14.1393 15.0425 14.5285 14.9008L23.649 11.5812C24.0851 11.4225 24.5664 11.4435 24.9871 11.6397C25.4077 11.8358 25.7332 12.191 25.8919 12.6272L28.2861 19.205C28.3647 19.421 28.4 19.6503 28.39 19.8799C28.3799 20.1095 28.3248 20.3349 28.2277 20.5431C28.1305 20.7514 27.9933 20.9385 27.8239 21.0938C27.6545 21.249 27.4561 21.3694 27.2402 21.448L10.7955 27.4334C10.4063 27.575 9.97592 27.3744 9.83425 26.9851C9.69258 26.5959 9.89327 26.1655 10.2825 26.0238L26.7271 20.0385C26.758 20.0273 26.7863 20.0101 26.8105 19.9879C26.8347 19.9657 26.8543 19.939 26.8682 19.9092C26.8821 19.8795 26.89 19.8473 26.8914 19.8145C26.8928 19.7817 26.8878 19.7489 26.8766 19.7181L24.4824 13.1402C24.4597 13.0779 24.4132 13.0272 24.3531 12.9991Z" fill="currentColor"/>
        <path fill-rule="evenodd" clip-rule="evenodd" d="M27.4998 19.5666C27.914 19.5666 28.2498 19.9024 28.2498 20.3166V26C28.2498 26.4641 28.0654 26.9092 27.7372 27.2374C27.409 27.5656 26.9639 27.75 26.4998 27.75H8.99976C8.58554 27.75 8.24976 27.4142 8.24976 27C8.24976 26.5858 8.58554 26.25 8.99976 26.25H26.4998C26.5661 26.25 26.6297 26.2236 26.6765 26.1767C26.7234 26.1299 26.7498 26.0663 26.7498 26V20.3166C26.7498 19.9024 27.0855 19.5666 27.4998 19.5666Z" fill="currentColor"/>
        <path d="M9 23.75C9.69036 23.75 10.25 23.1904 10.25 22.5C10.25 21.8096 9.69036 21.25 9 21.25C8.30964 21.25 7.75 21.8096 7.75 22.5C7.75 23.1904 8.30964 23.75 9 23.75Z" fill="currentColor"/>
    </symbol>
    <symbol id="icon-corners-out" viewBox="0 0 32 32" fill="currentColor">
        <path fill-rule="evenodd" clip-rule="evenodd" d="M20.25 6C20.25 5.58579 20.5858 5.25 21 5.25H26C26.4142 5.25 26.75 5.58579 26.75 6V11C26.75 11.4142 26.4142 11.75 26 11.75C25.5858 11.75 25.25 11.4142 25.25 11V6.75H21C20.5858 6.75 20.25 6.41421 20.25 6Z" fill="currentColor"/>
        <path fill-rule="evenodd" clip-rule="evenodd" d="M6 20.25C6.41421 20.25 6.75 20.5858 6.75 21V25.25H11C11.4142 25.25 11.75 25.5858 11.75 26C11.75 26.4142 11.4142 26.75 11 26.75H6C5.58579 26.75 5.25 26.4142 5.25 26V21C5.25 20.5858 5.58579 20.25 6 20.25Z" fill="currentColor"/>
        <path fill-rule="evenodd" clip-rule="evenodd" d="M26 20.25C26.4142 20.25 26.75 20.5858 26.75 21V26C26.75 26.4142 26.4142 26.75 26 26.75H21C20.5858 26.75 20.25 26.4142 20.25 26C20.25 25.5858 20.5858 25.25 21 25.25H25.25V21C25.25 20.5858 25.5858 20.25 26 20.25Z" fill="currentColor"/>
        <path fill-rule="evenodd" clip-rule="evenodd" d="M5.25 6C5.25 5.58579 5.58579 5.25 6 5.25H11C11.4142 5.25 11.75 5.58579 11.75 6C11.75 6.41421 11.4142 6.75 11 6.75H6.75V11C6.75 11.4142 6.41421 11.75 6 11.75C5.58579 11.75 5.25 11.4142 5.25 11V6Z" fill="currentColor"/>
    </symbol>
    <symbol id="icon-corners-in" viewBox="0 0 32 32" fill="currentColor">
        <path fill-rule="evenodd" clip-rule="evenodd" d="M20 5.25C20.4142 5.25 20.75 5.58579 20.75 6V11.25H26C26.4142 11.25 26.75 11.5858 26.75 12C26.75 12.4142 26.4142 12.75 26 12.75H20C19.5858 12.75 19.25 12.4142 19.25 12V6C19.25 5.58579 19.5858 5.25 20 5.25Z" fill="currentColor"/>
        <path fill-rule="evenodd" clip-rule="evenodd" d="M5.25 20C5.25 19.5858 5.58579 19.25 6 19.25H12C12.4142 19.25 12.75 19.5858 12.75 20V26C12.75 26.4142 12.4142 26.75 12 26.75C11.5858 26.75 11.25 26.4142 11.25 26V20.75H6C5.58579 20.75 5.25 20.4142 5.25 20Z" fill="currentColor"/>
        <path fill-rule="evenodd" clip-rule="evenodd" d="M19.25 20C19.25 19.5858 19.5858 19.25 20 19.25H26C26.4142 19.25 26.75 19.5858 26.75 20C26.75 20.4142 26.4142 20.75 26 20.75H20.75V26C20.75 26.4142 20.4142 26.75 20 26.75C19.5858 26.75 19.25 26.4142 19.25 26V20Z" fill="currentColor"/>
        <path fill-rule="evenodd" clip-rule="evenodd" d="M12 5.25C12.4142 5.25 12.75 5.58579 12.75 6V12C12.75 12.4142 12.4142 12.75 12 12.75H6C5.58579 12.75 5.25 12.4142 5.25 12C5.25 11.5858 5.58579 11.25 6 11.25H11.25V6C11.25 5.58579 11.5858 5.25 12 5.25Z" fill="currentColor"/>
    </symbol>
    <symbol id="icon-user-plus" viewBox="0 0 42 42" fill="currentColor">
        <path fill-rule="evenodd" clip-rule="evenodd" d="M30.1455 6.21729C30.1455 5.80307 30.4813 5.46729 30.8955 5.46729H40.7912C41.2055 5.46729 41.5412 5.80307 41.5412 6.21729C41.5412 6.6315 41.2055 6.96729 40.7912 6.96729H30.8955C30.4813 6.96729 30.1455 6.6315 30.1455 6.21729Z" fill="currentColor"/>
        <path fill-rule="evenodd" clip-rule="evenodd" d="M35.8428 0.25C36.257 0.25 36.5928 0.585786 36.5928 1V11.4354C36.5928 11.8496 36.257 12.1854 35.8428 12.1854C35.4286 12.1854 35.0928 11.8496 35.0928 11.4354V1C35.0928 0.585786 35.4286 0.25 35.8428 0.25Z" fill="currentColor"/>
        <path fill-rule="evenodd" clip-rule="evenodd" d="M21.0003 29.5771C17.0864 29.5771 13.239 30.663 9.84408 32.7293C6.44884 34.7957 3.62422 37.771 1.6579 41.3601C1.45888 41.7233 1.00305 41.8565 0.639783 41.6575C0.276515 41.4584 0.143365 41.0026 0.342385 40.6393C2.43149 36.8261 5.43815 33.6548 9.06422 31.4479C12.6907 29.2408 16.8073 28.0771 21.0003 28.0771C25.1932 28.0772 29.3099 29.241 32.9362 31.4482C36.5623 33.6552 39.5689 36.8265 41.6579 40.6398C41.8569 41.0031 41.7238 41.4589 41.3605 41.6579C40.9972 41.8569 40.5414 41.7238 40.3424 41.3605C38.3761 37.7713 35.5516 34.796 32.1564 32.7295C28.7615 30.6632 24.9141 29.5772 21.0003 29.5771Z" fill="currentColor"/>
        <path fill-rule="evenodd" clip-rule="evenodd" d="M23.8657 2.10056C21.5423 1.52152 19.11 1.66195 16.8591 2.50599C14.6077 3.35021 12.6293 4.86424 11.1653 6.87233C9.70106 8.88077 8.81513 11.2964 8.61841 13.8296C8.42169 16.3627 8.92304 18.9002 10.0595 21.1361C11.1958 23.3718 12.9169 25.2079 15.0109 26.4288C17.1044 27.6494 19.4839 28.2049 21.8645 28.0323C24.2452 27.8596 26.5321 26.9657 28.45 25.4524C30.3684 23.9387 31.8367 21.8688 32.6729 19.4879C32.8102 19.0971 33.2382 18.8916 33.6291 19.0288C34.0199 19.1661 34.2254 19.5942 34.0882 19.985C33.1604 22.6264 31.5272 24.935 29.3792 26.6299C27.2306 28.3252 24.6591 29.3336 21.9729 29.5283C19.2867 29.7231 16.6065 29.0955 14.2554 27.7246C11.9047 26.3541 9.9852 24.3006 8.72229 21.8158C7.45952 19.3313 6.90511 16.5181 7.12292 13.7134C7.34073 10.9087 8.32198 8.22618 9.95324 5.98866C11.5848 3.75079 13.7985 2.05165 16.3324 1.10149C18.8668 0.151152 21.6092 -0.00768825 24.2285 0.645076C24.6304 0.745242 24.875 1.15226 24.7748 1.55418C24.6747 1.9561 24.2677 2.20072 23.8657 2.10056Z" fill="currentColor"/>
    </symbol>
    <symbol id="icon-globe" viewBox="0 0 32 32" fill="currentColor">
        <path d="M27.25 16C27.25 9.7868 22.2132 4.75 16 4.75C9.7868 4.75 4.75 9.7868 4.75 16C4.75 22.2132 9.7868 27.25 16 27.25C22.2132 27.25 27.25 22.2132 27.25 16ZM28.75 16C28.75 23.0416 23.0416 28.75 16 28.75C8.95837 28.75 3.25 23.0416 3.25 16C3.25 8.95837 8.95837 3.25 16 3.25C23.0416 3.25 28.75 8.95837 28.75 16Z" fill="currentColor"/>
        <path d="M27.3159 11.25C27.7301 11.25 28.0659 11.5858 28.0659 12C28.0659 12.4142 27.7301 12.75 27.3159 12.75H4.68311C4.26889 12.75 3.93311 12.4142 3.93311 12C3.93311 11.5858 4.26889 11.25 4.68311 11.25H27.3159Z" fill="currentColor"/>
        <path d="M27.3164 19.25C27.7306 19.25 28.0664 19.5858 28.0664 20C28.0664 20.4142 27.7306 20.75 27.3164 20.75H4.68359C4.26938 20.75 3.93359 20.4142 3.93359 20C3.93359 19.5858 4.26938 19.25 4.68359 19.25H27.3164Z" fill="currentColor"/>
        <path d="M20.25 15.9999C20.25 12.8518 19.7018 10.0374 18.8457 8.03796C18.4171 7.03686 17.9261 6.27432 17.4189 5.77332C16.915 5.27558 16.4364 5.07214 16 5.07214C15.5636 5.07214 15.085 5.27558 14.5811 5.77332C14.0739 6.27432 13.5829 7.03686 13.1543 8.03796C12.2982 10.0374 11.75 12.8518 11.75 15.9999C11.75 19.1481 12.2982 21.9633 13.1543 23.9628C13.5829 24.9636 14.074 25.7255 14.5811 26.2264C15.085 26.7243 15.5635 26.9276 16 26.9276C16.4365 26.9276 16.915 26.7243 17.4189 26.2264C17.926 25.7255 18.4171 24.9636 18.8457 23.9628C19.7018 21.9633 20.25 19.1481 20.25 15.9999ZM21.75 15.9999C21.75 19.3012 21.1781 22.3256 20.2246 24.5526C19.7485 25.6647 19.1628 26.613 18.4736 27.2938C17.7812 27.9778 16.9442 28.4276 16 28.4276C15.0558 28.4276 14.2188 27.9778 13.5264 27.2938C12.8372 26.613 12.2515 25.6647 11.7754 24.5526C10.8219 22.3256 10.25 19.3012 10.25 15.9999C10.25 12.6986 10.8219 9.67415 11.7754 7.44714C12.2516 6.33509 12.8372 5.38673 13.5264 4.70593C14.2188 4.02192 15.0558 3.57214 16 3.57214C16.9442 3.57214 17.7812 4.02192 18.4736 4.70593C19.1628 5.38673 19.7484 6.33509 20.2246 7.44714C21.1781 9.67415 21.75 12.6986 21.75 15.9999Z" fill="currentColor"/>
    </symbol>
</svg>